<svg xmlns="http://www.w3.org/2000/svg" width="32" height="32" viewBox="0 0 32 32" fill="none">
<path d="M22.6293 8.33465C22.3232 8.16432 21.9866 8.056 21.6386 8.01589C21.2906 7.97577 20.9381 8.00465 20.6012 8.10087C20.2644 8.19709 19.9499 8.35876 19.6756 8.57664C19.4013 8.79452 19.1726 9.06433 19.0027 9.37065L14.052 18.28L11.2187 15.4466C10.9727 15.192 10.6784 14.9888 10.3531 14.849C10.0277 14.7093 9.67781 14.6357 9.32373 14.6326C8.96966 14.6296 8.61851 14.697 8.29079 14.8311C7.96306 14.9652 7.66533 15.1632 7.41494 15.4136C7.16456 15.664 6.96656 15.9617 6.83247 16.2894C6.69839 16.6172 6.63092 16.9683 6.634 17.3224C6.63707 17.6765 6.71064 18.0264 6.85039 18.3517C6.99015 18.6771 7.1933 18.9713 7.448 19.2173L12.7813 24.5506C13.2853 25.056 13.9653 25.3333 14.6667 25.3333L15.036 25.3066C15.4447 25.2495 15.8346 25.0982 16.175 24.8648C16.5153 24.6313 16.7968 24.322 16.9973 23.9613L23.664 11.9613C23.8342 11.6553 23.9425 11.3187 23.9826 10.9708C24.0227 10.6229 23.9939 10.2705 23.8978 9.93368C23.8017 9.59691 23.6403 9.28237 23.4226 9.008C23.205 8.73364 22.9354 8.50483 22.6293 8.33465Z" fill="white"/>
</svg>