<svg xmlns="http://www.w3.org/2000/svg" viewBox="0 0 259 183" fill="none">
<path d="M254.641 114.391C248.746 97.5761 235.006 89.0547 221.742 80.8147C210.199 73.6398 199.299 66.8602 192.171 54.6877C172.522 20.9705 161.73 0.625 129.54 0.625C97.3504 0.625 86.5245 20.9772 66.8288 54.681C59.6941 66.8803 48.7409 73.6733 37.1848 80.8615C23.9203 89.1083 10.207 97.6096 4.2916 114.391C1.98932 120.443 0.830813 126.869 0.874997 133.343C0.874997 160.636 22.614 182.844 46.6977 182.844C70.7813 182.844 102.509 170.698 129.607 170.698C156.706 170.698 187.991 182.844 212.376 182.844C236.761 182.844 258.125 160.636 258.125 133.343C258.144 126.865 256.963 120.439 254.641 114.391Z" fill="white"/>
</svg>