<svg xmlns="http://www.w3.org/2000/svg" width="17" height="9" viewBox="0 0 17 9" fill="none">
<path d="M16.6258 0.344159C16.3861 0.123794 16.0611 -4.16197e-07 15.7222 -4.16197e-07C15.3833 -4.16197e-07 15.0583 0.123794 14.8186 0.344159L8.49228 6.16269L2.16593 0.344159C1.92489 0.130039 1.60205 0.0115593 1.26695 0.0142375C0.931844 0.0169157 0.611293 0.140537 0.374332 0.358477C0.137371 0.576417 0.00296075 0.871238 4.88139e-05 1.17944C-0.00286312 1.48764 0.125957 1.78457 0.358765 2.00626L7.5887 8.65584C7.82837 8.87621 8.15339 9 8.49228 9C8.83118 9 9.1562 8.87621 9.39587 8.65584L16.6258 2.00626C16.8654 1.78583 17 1.4869 17 1.17521C17 0.863519 16.8654 0.56459 16.6258 0.344159Z" fill="#808080"/>
</svg>